%TF.GenerationSoftware,KiCad,Pcbnew,9.0.3*%
%TF.CreationDate,2026-07-01T13:54:40-05:00*%
%TF.ProjectId,One Key Submission,4f6e6520-4b65-4792-9053-75626d697373,rev?*%
%TF.SameCoordinates,Original*%
%TF.FileFunction,Legend,Top*%
%TF.FilePolarity,Positive*%
%FSLAX46Y46*%
G04 Gerber Fmt 4.6, Leading zero omitted, Abs format (unit mm)*
G04 Created by KiCad (PCBNEW 9.0.3) date 2026-07-01 13:54:40*
%MOMM*%
%LPD*%
G01*
G04 APERTURE LIST*
%ADD10C,0.100000*%
%ADD11C,0.000000*%
G04 APERTURE END LIST*
D10*
X159494360Y-122872419D02*
X159684836Y-122872419D01*
X159684836Y-122872419D02*
X159780074Y-122920038D01*
X159780074Y-122920038D02*
X159875312Y-123015276D01*
X159875312Y-123015276D02*
X159922931Y-123205752D01*
X159922931Y-123205752D02*
X159922931Y-123539085D01*
X159922931Y-123539085D02*
X159875312Y-123729561D01*
X159875312Y-123729561D02*
X159780074Y-123824800D01*
X159780074Y-123824800D02*
X159684836Y-123872419D01*
X159684836Y-123872419D02*
X159494360Y-123872419D01*
X159494360Y-123872419D02*
X159399122Y-123824800D01*
X159399122Y-123824800D02*
X159303884Y-123729561D01*
X159303884Y-123729561D02*
X159256265Y-123539085D01*
X159256265Y-123539085D02*
X159256265Y-123205752D01*
X159256265Y-123205752D02*
X159303884Y-123015276D01*
X159303884Y-123015276D02*
X159399122Y-122920038D01*
X159399122Y-122920038D02*
X159494360Y-122872419D01*
X160351503Y-123205752D02*
X160351503Y-123872419D01*
X160351503Y-123300990D02*
X160399122Y-123253371D01*
X160399122Y-123253371D02*
X160494360Y-123205752D01*
X160494360Y-123205752D02*
X160637217Y-123205752D01*
X160637217Y-123205752D02*
X160732455Y-123253371D01*
X160732455Y-123253371D02*
X160780074Y-123348609D01*
X160780074Y-123348609D02*
X160780074Y-123872419D01*
X161637217Y-123824800D02*
X161541979Y-123872419D01*
X161541979Y-123872419D02*
X161351503Y-123872419D01*
X161351503Y-123872419D02*
X161256265Y-123824800D01*
X161256265Y-123824800D02*
X161208646Y-123729561D01*
X161208646Y-123729561D02*
X161208646Y-123348609D01*
X161208646Y-123348609D02*
X161256265Y-123253371D01*
X161256265Y-123253371D02*
X161351503Y-123205752D01*
X161351503Y-123205752D02*
X161541979Y-123205752D01*
X161541979Y-123205752D02*
X161637217Y-123253371D01*
X161637217Y-123253371D02*
X161684836Y-123348609D01*
X161684836Y-123348609D02*
X161684836Y-123443847D01*
X161684836Y-123443847D02*
X161208646Y-123539085D01*
X162875313Y-123872419D02*
X162875313Y-122872419D01*
X163446741Y-123872419D02*
X163018170Y-123300990D01*
X163446741Y-122872419D02*
X162875313Y-123443847D01*
X164256265Y-123824800D02*
X164161027Y-123872419D01*
X164161027Y-123872419D02*
X163970551Y-123872419D01*
X163970551Y-123872419D02*
X163875313Y-123824800D01*
X163875313Y-123824800D02*
X163827694Y-123729561D01*
X163827694Y-123729561D02*
X163827694Y-123348609D01*
X163827694Y-123348609D02*
X163875313Y-123253371D01*
X163875313Y-123253371D02*
X163970551Y-123205752D01*
X163970551Y-123205752D02*
X164161027Y-123205752D01*
X164161027Y-123205752D02*
X164256265Y-123253371D01*
X164256265Y-123253371D02*
X164303884Y-123348609D01*
X164303884Y-123348609D02*
X164303884Y-123443847D01*
X164303884Y-123443847D02*
X163827694Y-123539085D01*
X164637218Y-123205752D02*
X164875313Y-123872419D01*
X165113408Y-123205752D02*
X164875313Y-123872419D01*
X164875313Y-123872419D02*
X164780075Y-124110514D01*
X164780075Y-124110514D02*
X164732456Y-124158133D01*
X164732456Y-124158133D02*
X164637218Y-124205752D01*
X166161028Y-122872419D02*
X166827694Y-123872419D01*
X166827694Y-122872419D02*
X166161028Y-123872419D01*
X167970552Y-123872419D02*
X167970552Y-122872419D01*
X167970552Y-123348609D02*
X168541980Y-123348609D01*
X168541980Y-123872419D02*
X168541980Y-122872419D01*
X169446742Y-123872419D02*
X169446742Y-123348609D01*
X169446742Y-123348609D02*
X169399123Y-123253371D01*
X169399123Y-123253371D02*
X169303885Y-123205752D01*
X169303885Y-123205752D02*
X169113409Y-123205752D01*
X169113409Y-123205752D02*
X169018171Y-123253371D01*
X169446742Y-123824800D02*
X169351504Y-123872419D01*
X169351504Y-123872419D02*
X169113409Y-123872419D01*
X169113409Y-123872419D02*
X169018171Y-123824800D01*
X169018171Y-123824800D02*
X168970552Y-123729561D01*
X168970552Y-123729561D02*
X168970552Y-123634323D01*
X168970552Y-123634323D02*
X169018171Y-123539085D01*
X169018171Y-123539085D02*
X169113409Y-123491466D01*
X169113409Y-123491466D02*
X169351504Y-123491466D01*
X169351504Y-123491466D02*
X169446742Y-123443847D01*
X170351504Y-123824800D02*
X170256266Y-123872419D01*
X170256266Y-123872419D02*
X170065790Y-123872419D01*
X170065790Y-123872419D02*
X169970552Y-123824800D01*
X169970552Y-123824800D02*
X169922933Y-123777180D01*
X169922933Y-123777180D02*
X169875314Y-123681942D01*
X169875314Y-123681942D02*
X169875314Y-123396228D01*
X169875314Y-123396228D02*
X169922933Y-123300990D01*
X169922933Y-123300990D02*
X169970552Y-123253371D01*
X169970552Y-123253371D02*
X170065790Y-123205752D01*
X170065790Y-123205752D02*
X170256266Y-123205752D01*
X170256266Y-123205752D02*
X170351504Y-123253371D01*
X170780076Y-123872419D02*
X170780076Y-122872419D01*
X170875314Y-123491466D02*
X171161028Y-123872419D01*
X171161028Y-123205752D02*
X170780076Y-123586704D01*
X172922933Y-123777180D02*
X172875314Y-123824800D01*
X172875314Y-123824800D02*
X172732457Y-123872419D01*
X172732457Y-123872419D02*
X172637219Y-123872419D01*
X172637219Y-123872419D02*
X172494362Y-123824800D01*
X172494362Y-123824800D02*
X172399124Y-123729561D01*
X172399124Y-123729561D02*
X172351505Y-123634323D01*
X172351505Y-123634323D02*
X172303886Y-123443847D01*
X172303886Y-123443847D02*
X172303886Y-123300990D01*
X172303886Y-123300990D02*
X172351505Y-123110514D01*
X172351505Y-123110514D02*
X172399124Y-123015276D01*
X172399124Y-123015276D02*
X172494362Y-122920038D01*
X172494362Y-122920038D02*
X172637219Y-122872419D01*
X172637219Y-122872419D02*
X172732457Y-122872419D01*
X172732457Y-122872419D02*
X172875314Y-122920038D01*
X172875314Y-122920038D02*
X172922933Y-122967657D01*
X173494362Y-123872419D02*
X173399124Y-123824800D01*
X173399124Y-123824800D02*
X173351505Y-123729561D01*
X173351505Y-123729561D02*
X173351505Y-122872419D01*
X174303886Y-123205752D02*
X174303886Y-123872419D01*
X173875315Y-123205752D02*
X173875315Y-123729561D01*
X173875315Y-123729561D02*
X173922934Y-123824800D01*
X173922934Y-123824800D02*
X174018172Y-123872419D01*
X174018172Y-123872419D02*
X174161029Y-123872419D01*
X174161029Y-123872419D02*
X174256267Y-123824800D01*
X174256267Y-123824800D02*
X174303886Y-123777180D01*
X174780077Y-123872419D02*
X174780077Y-122872419D01*
X174780077Y-123253371D02*
X174875315Y-123205752D01*
X174875315Y-123205752D02*
X175065791Y-123205752D01*
X175065791Y-123205752D02*
X175161029Y-123253371D01*
X175161029Y-123253371D02*
X175208648Y-123300990D01*
X175208648Y-123300990D02*
X175256267Y-123396228D01*
X175256267Y-123396228D02*
X175256267Y-123681942D01*
X175256267Y-123681942D02*
X175208648Y-123777180D01*
X175208648Y-123777180D02*
X175161029Y-123824800D01*
X175161029Y-123824800D02*
X175065791Y-123872419D01*
X175065791Y-123872419D02*
X174875315Y-123872419D01*
X174875315Y-123872419D02*
X174780077Y-123824800D01*
%TO.C,REF\u002A\u002A*%
X170430000Y-105390000D02*
X170430000Y-101550000D01*
X164140000Y-101360000D02*
X170430000Y-101360000D01*
X170430000Y-105390000D01*
X164140000Y-105390000D01*
X164140000Y-101360000D01*
D11*
%TO.C,G\u002A\u002A\u002A*%
G36*
X172135639Y-112512907D02*
G01*
X172164667Y-112623997D01*
X172104074Y-112725515D01*
X171976091Y-112736869D01*
X171863774Y-112653956D01*
X171862249Y-112520758D01*
X171893733Y-112475067D01*
X172024926Y-112431312D01*
X172135639Y-112512907D01*
G37*
G36*
X165320942Y-113027670D02*
G01*
X165378207Y-113164589D01*
X165356085Y-113358026D01*
X165286398Y-113460923D01*
X165171424Y-113600163D01*
X165104899Y-113778385D01*
X165098390Y-113936331D01*
X165163463Y-114014739D01*
X165178053Y-114016000D01*
X165292154Y-114060576D01*
X165285496Y-114154266D01*
X165166766Y-114237015D01*
X165145161Y-114243421D01*
X164989782Y-114352779D01*
X164942003Y-114444935D01*
X164926163Y-114546372D01*
X164982268Y-114554896D01*
X165148300Y-114475995D01*
X165150198Y-114475014D01*
X165337532Y-114350240D01*
X165445570Y-114226947D01*
X165447081Y-114223240D01*
X165536708Y-114108859D01*
X165620151Y-114145033D01*
X165645333Y-114264235D01*
X165580584Y-114419291D01*
X165421758Y-114585881D01*
X165392138Y-114608094D01*
X165034629Y-114786639D01*
X164679608Y-114827625D01*
X164367725Y-114726489D01*
X164363074Y-114723541D01*
X164187812Y-114558383D01*
X164018793Y-114318821D01*
X163899005Y-114073803D01*
X163867333Y-113928461D01*
X163904631Y-113842969D01*
X163995728Y-113883218D01*
X164109433Y-114028490D01*
X164159669Y-114122618D01*
X164296268Y-114341365D01*
X164450174Y-114497904D01*
X164459975Y-114504336D01*
X164586907Y-114564942D01*
X164627176Y-114504037D01*
X164629333Y-114444258D01*
X164564756Y-114268184D01*
X164490446Y-114200689D01*
X164407557Y-114092591D01*
X164440679Y-113986120D01*
X164558843Y-113954137D01*
X164591230Y-113963574D01*
X164701940Y-113940287D01*
X164763358Y-113805920D01*
X164762888Y-113614702D01*
X164709041Y-113456400D01*
X164657925Y-113314682D01*
X164891918Y-113314682D01*
X164976755Y-113296917D01*
X164992818Y-113290890D01*
X165096496Y-113223817D01*
X165097240Y-113185685D01*
X165007675Y-113195182D01*
X164945422Y-113243494D01*
X164891918Y-113314682D01*
X164657925Y-113314682D01*
X164647681Y-113286281D01*
X164704369Y-113146290D01*
X164759216Y-113081482D01*
X164956628Y-112948288D01*
X165161589Y-112932730D01*
X165320942Y-113027670D01*
G37*
G36*
X168482576Y-109796112D02*
G01*
X168520758Y-109861276D01*
X168666920Y-109981028D01*
X168954169Y-110087419D01*
X169354342Y-110172413D01*
X169793306Y-110224421D01*
X170033123Y-110284051D01*
X170115885Y-110390635D01*
X170073639Y-110545138D01*
X169927581Y-110759475D01*
X169712358Y-110995997D01*
X169462618Y-111217056D01*
X169213007Y-111385003D01*
X169189315Y-111397464D01*
X168833334Y-111535752D01*
X168541649Y-111537102D01*
X168272490Y-111396578D01*
X168134533Y-111272800D01*
X167953745Y-111066604D01*
X167869339Y-110872425D01*
X167846843Y-110605462D01*
X167846667Y-110564679D01*
X167850903Y-110503359D01*
X168020791Y-110503359D01*
X168100448Y-110814131D01*
X168239289Y-111033097D01*
X168396926Y-111216821D01*
X168539155Y-111290734D01*
X168741289Y-111288007D01*
X168800919Y-111280464D01*
X169075259Y-111201513D01*
X169344885Y-111022583D01*
X169507188Y-110873988D01*
X169697028Y-110682566D01*
X169822698Y-110545933D01*
X169855725Y-110497679D01*
X169768386Y-110474310D01*
X169576869Y-110435751D01*
X169524721Y-110426166D01*
X169319321Y-110399483D01*
X169225524Y-110439091D01*
X169189923Y-110573261D01*
X169186054Y-110605434D01*
X169154596Y-110750934D01*
X169071830Y-110819663D01*
X168888546Y-110840031D01*
X168778000Y-110841000D01*
X168537253Y-110829090D01*
X168417895Y-110779292D01*
X168372816Y-110670499D01*
X168371016Y-110658675D01*
X168379306Y-110623821D01*
X168629425Y-110623821D01*
X168641006Y-110629333D01*
X168718272Y-110569730D01*
X168735667Y-110544667D01*
X168757241Y-110465512D01*
X168745660Y-110460000D01*
X168668395Y-110519603D01*
X168651000Y-110544667D01*
X168629425Y-110623821D01*
X168379306Y-110623821D01*
X168418611Y-110458578D01*
X168514203Y-110357858D01*
X168620005Y-110271996D01*
X168598749Y-110215440D01*
X168434185Y-110145306D01*
X168433558Y-110145070D01*
X168249034Y-110093554D01*
X168147643Y-110134536D01*
X168099870Y-110207488D01*
X168020791Y-110503359D01*
X167850903Y-110503359D01*
X167866881Y-110272071D01*
X167944907Y-110070637D01*
X168069879Y-109921212D01*
X168260427Y-109751773D01*
X168385483Y-109711736D01*
X168482576Y-109796112D01*
G37*
G36*
X169274183Y-112591696D02*
G01*
X169693609Y-112759066D01*
X170059414Y-112851362D01*
X170415898Y-112876999D01*
X170807362Y-112844392D01*
X171127500Y-112791122D01*
X171357483Y-112764220D01*
X171478293Y-112784331D01*
X171487333Y-112801535D01*
X171428216Y-112902542D01*
X171275906Y-113075044D01*
X171067969Y-113282942D01*
X170841968Y-113490138D01*
X170635468Y-113660531D01*
X170498066Y-113752213D01*
X170312068Y-113804564D01*
X170030488Y-113838677D01*
X169820733Y-113846246D01*
X169487761Y-113827604D01*
X169256772Y-113761094D01*
X169094225Y-113655746D01*
X168905955Y-113437008D01*
X168860911Y-113344540D01*
X169122550Y-113344540D01*
X169172979Y-113420713D01*
X169201333Y-113423333D01*
X169266913Y-113351625D01*
X169275193Y-113296333D01*
X169540000Y-113296333D01*
X169561265Y-113492201D01*
X169613555Y-113590107D01*
X169624667Y-113592667D01*
X169680629Y-113518238D01*
X169708602Y-113335223D01*
X169709333Y-113296333D01*
X169895172Y-113296333D01*
X169904324Y-113440929D01*
X169930828Y-113453660D01*
X169934202Y-113446111D01*
X169950951Y-113278032D01*
X169943629Y-113231809D01*
X170134845Y-113231809D01*
X170174757Y-113398660D01*
X170241157Y-113545111D01*
X170296258Y-113592667D01*
X170322301Y-113524889D01*
X170283907Y-113359910D01*
X170277303Y-113341898D01*
X170203040Y-113180026D01*
X170199570Y-113176389D01*
X170473908Y-113176389D01*
X170504627Y-113324752D01*
X170575580Y-113400954D01*
X170620205Y-113387350D01*
X170612611Y-113295678D01*
X170566335Y-113196850D01*
X170516769Y-113127000D01*
X170810000Y-113127000D01*
X170852333Y-113169333D01*
X170894667Y-113127000D01*
X170852333Y-113084667D01*
X170810000Y-113127000D01*
X170516769Y-113127000D01*
X170497076Y-113099248D01*
X170474838Y-113149819D01*
X170473908Y-113176389D01*
X170199570Y-113176389D01*
X170150062Y-113124491D01*
X170147489Y-113126288D01*
X170134845Y-113231809D01*
X169943629Y-113231809D01*
X169937340Y-113192111D01*
X169910389Y-113157584D01*
X169895731Y-113270041D01*
X169895172Y-113296333D01*
X169709333Y-113296333D01*
X169688068Y-113100466D01*
X169635778Y-113002559D01*
X169624667Y-113000000D01*
X169568704Y-113074429D01*
X169540731Y-113257443D01*
X169540000Y-113296333D01*
X169275193Y-113296333D01*
X169284703Y-113232833D01*
X169271335Y-113109119D01*
X169221533Y-113139535D01*
X169201333Y-113169333D01*
X169122550Y-113344540D01*
X168860911Y-113344540D01*
X168777994Y-113174323D01*
X168776725Y-113169892D01*
X168724482Y-112921858D01*
X168718664Y-112865944D01*
X168954017Y-112865944D01*
X168969584Y-112975758D01*
X168998486Y-112977069D01*
X169001947Y-112957667D01*
X169286000Y-112957667D01*
X169328333Y-113000000D01*
X169370667Y-112957667D01*
X169328333Y-112915333D01*
X169286000Y-112957667D01*
X169001947Y-112957667D01*
X169018697Y-112863752D01*
X169005170Y-112814792D01*
X168967575Y-112782721D01*
X168954017Y-112865944D01*
X168718664Y-112865944D01*
X168698282Y-112670052D01*
X168699278Y-112462573D01*
X168728625Y-112347519D01*
X168756833Y-112340837D01*
X169274183Y-112591696D01*
G37*
G36*
X168313830Y-106919774D02*
G01*
X168601363Y-106956700D01*
X168894000Y-107030006D01*
X169229627Y-107148963D01*
X169646128Y-107322841D01*
X170123628Y-107534938D01*
X170926776Y-107961705D01*
X171664257Y-108482266D01*
X172297050Y-109066633D01*
X172629280Y-109460536D01*
X172842256Y-109767481D01*
X172966346Y-110023406D01*
X173031416Y-110298000D01*
X173048690Y-110439174D01*
X173086034Y-110773314D01*
X173136960Y-111187053D01*
X173190628Y-111592427D01*
X173192110Y-111603128D01*
X173232308Y-112177910D01*
X173197187Y-112722259D01*
X173092426Y-113191127D01*
X172953520Y-113495646D01*
X172767454Y-113672269D01*
X172449273Y-113855180D01*
X172035188Y-114032245D01*
X171561413Y-114191326D01*
X171064159Y-114320288D01*
X170579639Y-114406995D01*
X170144065Y-114439310D01*
X170137763Y-114439319D01*
X169663557Y-114400839D01*
X169129482Y-114298136D01*
X168623045Y-114150373D01*
X168384971Y-114055469D01*
X167949610Y-113857470D01*
X167735536Y-114338902D01*
X167440525Y-115136569D01*
X167264562Y-115957910D01*
X167212897Y-116429000D01*
X167177794Y-116787528D01*
X167134378Y-117111609D01*
X167091224Y-117338624D01*
X167085333Y-117360333D01*
X167045593Y-117563858D01*
X167006163Y-117877193D01*
X166974188Y-118240954D01*
X166968126Y-118334000D01*
X166948017Y-118662264D01*
X166931665Y-118917408D01*
X166921683Y-119059118D01*
X166920106Y-119074833D01*
X166849048Y-119095500D01*
X166830667Y-119096000D01*
X166785753Y-119018737D01*
X166755238Y-118816261D01*
X166746000Y-118579054D01*
X166767999Y-118192140D01*
X166824089Y-117780141D01*
X166864990Y-117584221D01*
X166925961Y-117275490D01*
X166984584Y-116869988D01*
X167030867Y-116440105D01*
X167041963Y-116302000D01*
X167086797Y-115853552D01*
X167160382Y-115464074D01*
X167279931Y-115061089D01*
X167437764Y-114635331D01*
X167775582Y-113772996D01*
X167550841Y-113389505D01*
X167423150Y-113123872D01*
X167359978Y-112892814D01*
X167359602Y-112812507D01*
X167387514Y-112693883D01*
X167424378Y-112711993D01*
X167493043Y-112873000D01*
X167658108Y-113234542D01*
X167845632Y-113488659D01*
X168107613Y-113694662D01*
X168323964Y-113820820D01*
X169014890Y-114102542D01*
X169772884Y-114237597D01*
X170579398Y-114225415D01*
X171415886Y-114065424D01*
X171841588Y-113929089D01*
X172258976Y-113759404D01*
X172580463Y-113576463D01*
X172814008Y-113358757D01*
X172967567Y-113084781D01*
X173049100Y-112733028D01*
X173066563Y-112281992D01*
X173027916Y-111710165D01*
X172941117Y-110996041D01*
X172937276Y-110968000D01*
X172899363Y-110712795D01*
X172870731Y-110608293D01*
X172840446Y-110637073D01*
X172804419Y-110756333D01*
X172697046Y-110995682D01*
X172530326Y-111230661D01*
X172518920Y-111243167D01*
X172364076Y-111382235D01*
X172192770Y-111452037D01*
X171939442Y-111474743D01*
X171831326Y-111475683D01*
X171372859Y-111425908D01*
X171099557Y-111316346D01*
X170823192Y-111057147D01*
X170636312Y-110699116D01*
X170566702Y-110301114D01*
X170571334Y-110197366D01*
X170602808Y-109867333D01*
X170036605Y-109867333D01*
X169381291Y-109793142D01*
X168712926Y-109582021D01*
X168178183Y-109308337D01*
X167962349Y-109191327D01*
X167644162Y-109038347D01*
X167278825Y-108875479D01*
X167123248Y-108809841D01*
X166734076Y-108631270D01*
X166351279Y-108426262D01*
X166040046Y-108230610D01*
X165961021Y-108171712D01*
X165729330Y-108005970D01*
X165539262Y-107903362D01*
X165444507Y-107885222D01*
X165339047Y-107980091D01*
X165178200Y-108186005D01*
X164986837Y-108464903D01*
X164789833Y-108778727D01*
X164612059Y-109089417D01*
X164478387Y-109358913D01*
X164472422Y-109372686D01*
X164375378Y-109589104D01*
X164223584Y-109915949D01*
X164036627Y-110311505D01*
X163834095Y-110734057D01*
X163802016Y-110800427D01*
X163563812Y-111304933D01*
X163306931Y-111869057D01*
X163064354Y-112419365D01*
X162890233Y-112830667D01*
X162696229Y-113289593D01*
X162484669Y-113769477D01*
X162284442Y-114205744D01*
X162157171Y-114469307D01*
X161964248Y-114886977D01*
X161764687Y-115370185D01*
X161598428Y-115821664D01*
X161583528Y-115866307D01*
X161360888Y-116526733D01*
X161160268Y-117090975D01*
X160986317Y-117547953D01*
X160843679Y-117886588D01*
X160737002Y-118095801D01*
X160670931Y-118164514D01*
X160650000Y-118092236D01*
X160679167Y-117957526D01*
X160759716Y-117693749D01*
X160881223Y-117329485D01*
X161033259Y-116893317D01*
X161205400Y-116413828D01*
X161387218Y-115919597D01*
X161568288Y-115439209D01*
X161738183Y-115001244D01*
X161886477Y-114634284D01*
X162002744Y-114366912D01*
X162028857Y-114312333D01*
X162299670Y-113755801D01*
X162521747Y-113273945D01*
X162727953Y-112793066D01*
X162934998Y-112280333D01*
X163056069Y-111992874D01*
X163236040Y-111589590D01*
X163458414Y-111106280D01*
X163706691Y-110578740D01*
X163964375Y-110042766D01*
X163999155Y-109971363D01*
X164337260Y-109293788D01*
X164628492Y-108751615D01*
X164889620Y-108323322D01*
X165137415Y-107987392D01*
X165388644Y-107722306D01*
X165563210Y-107583543D01*
X165899333Y-107583543D01*
X165972686Y-107703453D01*
X166172700Y-107868343D01*
X166469311Y-108059085D01*
X166832452Y-108256546D01*
X167232058Y-108441598D01*
X167278165Y-108460877D01*
X167647425Y-108620477D01*
X167994910Y-108782717D01*
X168263944Y-108920715D01*
X168336499Y-108962859D01*
X168686594Y-109146593D01*
X169111949Y-109323957D01*
X169521354Y-109457591D01*
X169582333Y-109473158D01*
X169794426Y-109496548D01*
X170126511Y-109502402D01*
X170530411Y-109493017D01*
X170957950Y-109470689D01*
X171360952Y-109437713D01*
X171691240Y-109396386D01*
X171847837Y-109365176D01*
X172069790Y-109292211D01*
X172194668Y-109220496D01*
X172205277Y-109187213D01*
X172123314Y-109104941D01*
X171940440Y-108944287D01*
X171688124Y-108732466D01*
X171527182Y-108600794D01*
X170926834Y-108177480D01*
X170213564Y-107778392D01*
X169443714Y-107432608D01*
X168862667Y-107225611D01*
X168353448Y-107117211D01*
X167780023Y-107077642D01*
X167200038Y-107104680D01*
X166671142Y-107196104D01*
X166301500Y-107324341D01*
X166075507Y-107443528D01*
X165929609Y-107543264D01*
X165899333Y-107583543D01*
X165563210Y-107583543D01*
X165660076Y-107506544D01*
X165968481Y-107318589D01*
X166133490Y-107232471D01*
X166408849Y-107101162D01*
X166641165Y-107015454D01*
X166883834Y-106963915D01*
X167190251Y-106935115D01*
X167602541Y-106917975D01*
X167993517Y-106909956D01*
X168313830Y-106919774D01*
G37*
%TD*%
M02*
