%TF.GenerationSoftware,KiCad,Pcbnew,9.0.3*%
%TF.CreationDate,2026-07-01T13:54:40-05:00*%
%TF.ProjectId,One Key Submission,4f6e6520-4b65-4792-9053-75626d697373,rev?*%
%TF.SameCoordinates,Original*%
%TF.FileFunction,Soldermask,Bot*%
%TF.FilePolarity,Negative*%
%FSLAX46Y46*%
G04 Gerber Fmt 4.6, Leading zero omitted, Abs format (unit mm)*
G04 Created by KiCad (PCBNEW 9.0.3) date 2026-07-01 13:54:40*
%MOMM*%
%LPD*%
G01*
G04 APERTURE LIST*
G04 Aperture macros list*
%AMRoundRect*
0 Rectangle with rounded corners*
0 $1 Rounding radius*
0 $2 $3 $4 $5 $6 $7 $8 $9 X,Y pos of 4 corners*
0 Add a 4 corners polygon primitive as box body*
4,1,4,$2,$3,$4,$5,$6,$7,$8,$9,$2,$3,0*
0 Add four circle primitives for the rounded corners*
1,1,$1+$1,$2,$3*
1,1,$1+$1,$4,$5*
1,1,$1+$1,$6,$7*
1,1,$1+$1,$8,$9*
0 Add four rect primitives between the rounded corners*
20,1,$1+$1,$2,$3,$4,$5,0*
20,1,$1+$1,$4,$5,$6,$7,0*
20,1,$1+$1,$6,$7,$8,$9,0*
20,1,$1+$1,$8,$9,$2,$3,0*%
G04 Aperture macros list end*
%ADD10C,0.150000*%
%ADD11RoundRect,0.250000X0.375000X0.625000X-0.375000X0.625000X-0.375000X-0.625000X0.375000X-0.625000X0*%
%ADD12RoundRect,0.250000X0.312500X0.625000X-0.312500X0.625000X-0.312500X-0.625000X0.312500X-0.625000X0*%
%ADD13RoundRect,0.200000X1.075000X1.050000X-1.075000X1.050000X-1.075000X-1.050000X1.075000X-1.050000X0*%
G04 APERTURE END LIST*
D10*
X171639411Y-115869819D02*
X172210839Y-115869819D01*
X171925125Y-115869819D02*
X171925125Y-114869819D01*
X171925125Y-114869819D02*
X172020363Y-115012676D01*
X172020363Y-115012676D02*
X172115601Y-115107914D01*
X172115601Y-115107914D02*
X172210839Y-115155533D01*
X171020363Y-114869819D02*
X170925125Y-114869819D01*
X170925125Y-114869819D02*
X170829887Y-114917438D01*
X170829887Y-114917438D02*
X170782268Y-114965057D01*
X170782268Y-114965057D02*
X170734649Y-115060295D01*
X170734649Y-115060295D02*
X170687030Y-115250771D01*
X170687030Y-115250771D02*
X170687030Y-115488866D01*
X170687030Y-115488866D02*
X170734649Y-115679342D01*
X170734649Y-115679342D02*
X170782268Y-115774580D01*
X170782268Y-115774580D02*
X170829887Y-115822200D01*
X170829887Y-115822200D02*
X170925125Y-115869819D01*
X170925125Y-115869819D02*
X171020363Y-115869819D01*
X171020363Y-115869819D02*
X171115601Y-115822200D01*
X171115601Y-115822200D02*
X171163220Y-115774580D01*
X171163220Y-115774580D02*
X171210839Y-115679342D01*
X171210839Y-115679342D02*
X171258458Y-115488866D01*
X171258458Y-115488866D02*
X171258458Y-115250771D01*
X171258458Y-115250771D02*
X171210839Y-115060295D01*
X171210839Y-115060295D02*
X171163220Y-114965057D01*
X171163220Y-114965057D02*
X171115601Y-114917438D01*
X171115601Y-114917438D02*
X171020363Y-114869819D01*
X170067982Y-114869819D02*
X169972744Y-114869819D01*
X169972744Y-114869819D02*
X169877506Y-114917438D01*
X169877506Y-114917438D02*
X169829887Y-114965057D01*
X169829887Y-114965057D02*
X169782268Y-115060295D01*
X169782268Y-115060295D02*
X169734649Y-115250771D01*
X169734649Y-115250771D02*
X169734649Y-115488866D01*
X169734649Y-115488866D02*
X169782268Y-115679342D01*
X169782268Y-115679342D02*
X169829887Y-115774580D01*
X169829887Y-115774580D02*
X169877506Y-115822200D01*
X169877506Y-115822200D02*
X169972744Y-115869819D01*
X169972744Y-115869819D02*
X170067982Y-115869819D01*
X170067982Y-115869819D02*
X170163220Y-115822200D01*
X170163220Y-115822200D02*
X170210839Y-115774580D01*
X170210839Y-115774580D02*
X170258458Y-115679342D01*
X170258458Y-115679342D02*
X170306077Y-115488866D01*
X170306077Y-115488866D02*
X170306077Y-115250771D01*
X170306077Y-115250771D02*
X170258458Y-115060295D01*
X170258458Y-115060295D02*
X170210839Y-114965057D01*
X170210839Y-114965057D02*
X170163220Y-114917438D01*
X170163220Y-114917438D02*
X170067982Y-114869819D01*
X164639411Y-117369819D02*
X165210839Y-117369819D01*
X164925125Y-117369819D02*
X164925125Y-116369819D01*
X164925125Y-116369819D02*
X165020363Y-116512676D01*
X165020363Y-116512676D02*
X165115601Y-116607914D01*
X165115601Y-116607914D02*
X165210839Y-116655533D01*
X164020363Y-116369819D02*
X163925125Y-116369819D01*
X163925125Y-116369819D02*
X163829887Y-116417438D01*
X163829887Y-116417438D02*
X163782268Y-116465057D01*
X163782268Y-116465057D02*
X163734649Y-116560295D01*
X163734649Y-116560295D02*
X163687030Y-116750771D01*
X163687030Y-116750771D02*
X163687030Y-116988866D01*
X163687030Y-116988866D02*
X163734649Y-117179342D01*
X163734649Y-117179342D02*
X163782268Y-117274580D01*
X163782268Y-117274580D02*
X163829887Y-117322200D01*
X163829887Y-117322200D02*
X163925125Y-117369819D01*
X163925125Y-117369819D02*
X164020363Y-117369819D01*
X164020363Y-117369819D02*
X164115601Y-117322200D01*
X164115601Y-117322200D02*
X164163220Y-117274580D01*
X164163220Y-117274580D02*
X164210839Y-117179342D01*
X164210839Y-117179342D02*
X164258458Y-116988866D01*
X164258458Y-116988866D02*
X164258458Y-116750771D01*
X164258458Y-116750771D02*
X164210839Y-116560295D01*
X164210839Y-116560295D02*
X164163220Y-116465057D01*
X164163220Y-116465057D02*
X164115601Y-116417438D01*
X164115601Y-116417438D02*
X164020363Y-116369819D01*
X163258458Y-117369819D02*
X163258458Y-116369819D01*
X162687030Y-117369819D02*
X163115601Y-116798390D01*
X162687030Y-116369819D02*
X163258458Y-116941247D01*
D11*
%TO.C,REF\u002A\u002A*%
X171800000Y-103500000D03*
X169000000Y-103500000D03*
%TD*%
D12*
%TO.C,REF\u002A\u002A*%
X165425000Y-115000000D03*
X162500000Y-115000000D03*
%TD*%
D11*
%TO.C,REF\u002A\u002A*%
X171900000Y-122500000D03*
X169100000Y-122500000D03*
%TD*%
%TO.C,REF\u002A\u002A*%
X165600000Y-122500000D03*
X162800000Y-122500000D03*
%TD*%
%TO.C,REF\u002A\u002A*%
X165500000Y-103500000D03*
X162700000Y-103500000D03*
%TD*%
D13*
%TO.C,REF\u002A\u002A*%
X171810000Y-110940000D03*
X162500000Y-108380000D03*
%TD*%
D12*
%TO.C,REF\u002A\u002A*%
X172925000Y-117000000D03*
X170000000Y-117000000D03*
%TD*%
M02*
